<svg xmlns="http://www.w3.org/2000/svg" width="100" height="44" viewBox="0 0 100 44" role="img" aria-label="Email">
  <defs>
    <linearGradient id="g" x1="0" y1="0" x2="0" y2="1">
      <stop offset="0" stop-color="#FB5B4B"/>
      <stop offset="1" stop-color="#D93025"/>
    </linearGradient>
  </defs>
  <rect width="100" height="44" rx="8" fill="url(#g)"/>
  <rect x="0.5" y="0.5" width="99" height="43" rx="7.5" fill="none" stroke="#ffffff" stroke-opacity="0.18"/>
  <g transform="translate(16,11) scale(0.9)" fill="#ffffff">
    <path d="M24 5.457v13.909c0 .904-.732 1.636-1.636 1.636h-3.819V11.73L12 16.64l-6.545-4.91v9.273H1.636A1.636 1.636 0 0 1 0 19.366V5.457c0-2.023 2.309-3.178 3.927-1.964L5.455 4.64 12 9.548l6.545-4.91 1.528-1.145C21.69 2.28 24 3.434 24 5.457z"/>
  </g>
  <text x="46" y="28" font-family="Segoe UI, Helvetica, Arial, sans-serif" font-size="16" font-weight="600" fill="#ffffff">Email</text>
</svg>
