<svg xmlns="http://www.w3.org/2000/svg" width="150" height="48" viewBox="0 0 150 48" role="img" aria-label="LinkedIn">
  <defs>
    <linearGradient id="g" x1="0" y1="0" x2="0" y2="1">
      <stop offset="0" stop-color="#2A8BF2"/>
      <stop offset="1" stop-color="#0A66C2"/>
    </linearGradient>
  </defs>
  <rect width="150" height="48" rx="24" fill="url(#g)"/>
  <rect x="0.5" y="0.5" width="149" height="47" rx="23.5" fill="none" stroke="#ffffff" stroke-opacity="0.18"/>
  <g transform="translate(20,13) scale(0.92)" fill="#ffffff">
    <path d="M20.447 20.452h-3.554v-5.569c0-1.328-.027-3.037-1.852-3.037-1.853 0-2.136 1.445-2.136 2.939v5.667H9.351V9h3.414v1.561h.046c.477-.9 1.637-1.85 3.37-1.85 3.601 0 4.267 2.37 4.267 5.455v6.286zM5.337 7.433a2.062 2.062 0 0 1-2.063-2.065 2.064 2.064 0 1 1 2.063 2.065zm1.782 13.019H3.555V9h3.564v11.452zM22.225 0H1.771C.792 0 0 .774 0 1.729v20.542C0 23.227.792 24 1.771 24h20.451C23.2 24 24 23.227 24 22.271V1.729C24 .774 23.2 0 22.222 0h.003z"/>
  </g>
  <text x="54" y="30" font-family="Segoe UI, Helvetica, Arial, sans-serif" font-size="17" font-weight="600" fill="#ffffff">LinkedIn</text>
</svg>
